<?xml version="1.0"?>
<svg xmlns="http://www.w3.org/2000/svg" height="512px" viewBox="0 0 448 448" width="512px"><path d="m224 0c-123.710938 0-224 100.289062-224 224s100.289062 224 224 224 224-100.289062 224-224c-.132812-123.65625-100.34375-223.867188-224-224zm158.398438 286.398438c-4.242188 0-8.3125-1.6875-11.308594-4.6875l-147.089844-147.085938-147.070312 147.070312c-6.28125 6.0625-16.257813 5.976563-22.429688-.195312s-6.257812-16.148438-.195312-22.429688l158.398437-158.398437c6.25-6.246094 16.375-6.246094 22.625 0l158.398437 158.398437c4.589844 4.578126 5.964844 11.46875 3.484376 17.457032-2.484376 5.984375-8.332032 9.882812-14.8125 9.871094zm0 0" fill="#FFFFFF"/></svg>
